<svg width="45" height="45" fill="none" xmlns="http://www.w3.org/2000/svg"><circle cx="23.054" cy="23" r="20" fill="#00BAE2"/><path d="M34.214 14H12.786a1.93 1.93 0 00-1.263.455 1.46 1.46 0 00-.523 1.1v14.89c0 .413.188.808.523 1.1.335.291.79.455 1.263.455h21.428a1.93 1.93 0 001.263-.455 1.46 1.46 0 00.523-1.1v-14.89a1.46 1.46 0 00-.523-1.1A1.93 1.93 0 0034.214 14zm-1.964 1.555l-8.75 5.27-8.75-5.27h17.5zm-19.464 14.89V16.262L22.99 22.41c.15.09.327.139.509.139s.36-.049.509-.139l10.205-6.148v14.183H12.786z" fill="#fff"/></svg>