<svg width="45" height="45" fill="none" xmlns="http://www.w3.org/2000/svg"><circle cx="22" cy="23" r="20" fill="#00BAE2"/><path d="M28.015 33.5h-.002a2.21 2.21 0 01-.52-.064h0l-.006-.001c-3.878-.896-7.46-2.996-10.327-6.068-2.804-3.077-4.754-7-5.607-11.298a3.115 3.115 0 01.063-1.415c.13-.458.361-.865.667-1.185h0l.004-.005 2.546-2.733a.756.756 0 01.271-.185.65.65 0 01.293-.044c.102.013.203.05.297.113a.846.846 0 01.25.267h0l3.182 5.246a.74.74 0 01-.04.794s0 0 0 0l-1.598 2.13-.17.227.106.262a14.047 14.047 0 002.75 4.334 12.783 12.783 0 004.02 3.019l.298.141.247-.219 1.98-1.753s0 0 0 0a.459.459 0 01.57-.048l4.798 3.46.007.005.008.005c.1.066.189.16.258.277a1.077 1.077 0 01.096.83l.48.143-.48-.142a.96.96 0 01-.19.353l-2.48 2.738v.001a2.55 2.55 0 01-.822.61 2.248 2.248 0 01-.95.205zM15.774 11.15l-.344-.562-.449.483-2.544 2.732a2.343 2.343 0 00-.56.99c-.104.375-.12.772-.045 1.154h0c.826 4.2 2.725 8.048 5.475 11.08h0l.005.005c2.824 3.025 6.362 5.105 10.21 5.992.374.087.761.069 1.126-.052.364-.12.69-.337.95-.626 0 0 0 0 0 0l2.483-2.741.376-.415-.454-.327-4.642-3.345-.325-.234-.299.266-2.125 1.888s0 0 0 0a.11.11 0 01-.05.027.074.074 0 01-.033-.001c-1.685-.696-3.216-1.799-4.484-3.235l-.007-.008-.007-.008c-1.307-1.361-2.326-3.037-2.98-4.904a.291.291 0 01.004-.113.237.237 0 01.048-.102l.01-.011.01-.013 1.719-2.294.203-.271-.177-.29-3.094-5.064z" stroke="#fff"/></svg>