<svg width="30" height="30" fill="none" xmlns="http://www.w3.org/2000/svg"><path d="M17.064 12.937a2.917 2.917 0 10-4.125 4.126 2.917 2.917 0 004.125-4.126z" fill="#AAA"/><path fill-rule="evenodd" clip-rule="evenodd" d="M15.001 7.827h-.785v-.002c-1.631.001-1.944.012-2.751.05-.853.039-1.316.18-1.624.301a2.7 2.7 0 00-1.006.654 2.715 2.715 0 00-.656 1.006c-.12.309-.262.773-.301 1.626-.042.922-.05 1.197-.05 3.534 0 2.337.008 2.614.05 3.536.038.853.181 1.317.3 1.624.141.38.365.724.657 1.006.282.29.626.514 1.006.654.308.12.77.263 1.624.302.922.042 1.2.052 3.536.052 2.336 0 2.613-.01 3.535-.052.854-.04 1.318-.181 1.624-.302a2.7 2.7 0 001.007-.654c.29-.281.514-.625.655-1.005.119-.308.262-.771.3-1.624.043-.922.052-1.2.052-3.535s-.009-2.612-.052-3.534c-.038-.853-.18-1.317-.3-1.624-.159-.41-.348-.7-.654-1.007a2.715 2.715 0 00-1.007-.655c-.308-.119-.772-.262-1.625-.3-.922-.043-1.199-.05-3.535-.05zM19.27 9.36a1.05 1.05 0 11.803 1.94 1.05 1.05 0 01-.803-1.94zm-6.01 1.469a4.494 4.494 0 113.342 8.343 4.494 4.494 0 01-3.342-8.343z" fill="#AAA"/><path fill-rule="evenodd" clip-rule="evenodd" d="M15 30c8.284 0 15-6.716 15-15 0-8.284-6.716-15-15-15C6.716 0 0 6.716 0 15c0 8.284 6.716 15 15 15zM11.394 6.303c.933-.042 1.232-.053 3.606-.053h-.002c2.378 0 2.674.01 3.608.053.93.042 1.567.19 2.125.406.584.22 1.113.564 1.55 1.01.445.437.79.966 1.01 1.55.215.555.363 1.192.407 2.123.041.934.052 1.231.052 3.608s-.01 2.674-.052 3.607c-.044.932-.192 1.567-.407 2.124a4.297 4.297 0 01-1.01 1.55c-.436.445-.965.79-1.549 1.01-.556.216-1.194.363-2.125.407-.934.041-1.23.052-3.607.052-2.377 0-2.674-.01-3.608-.052-.932-.043-1.567-.19-2.124-.407a4.27 4.27 0 01-1.55-1.01 4.297 4.297 0 01-1.009-1.55c-.216-.557-.363-1.192-.406-2.124-.042-.933-.053-1.23-.053-3.606 0-2.378.01-2.675.053-3.61.042-.93.19-1.567.406-2.122a4.295 4.295 0 011.01-1.55c.437-.445.966-.79 1.55-1.01.556-.216 1.192-.363 2.125-.406z" fill="#AAA"/></svg>