<svg width="119" height="89" fill="none" xmlns="http://www.w3.org/2000/svg"><path d="M28.354 0C36.66 0 43.462 2.545 48.76 7.635c5.298 5.09 7.948 11.852 7.948 20.287 0 3.78-.502 7.562-1.504 11.343-1.002 3.78-3.294 9.525-6.874 17.233L33.294 89H3.222l10.74-36.865c-4.44-2.182-7.876-5.308-10.31-9.38C1.217 38.538 0 33.593 0 27.922c0-8.435 2.65-15.197 7.948-20.287S20.048 0 28.354 0zm62.292 0c8.306 0 15.108 2.545 20.406 7.635 5.299 5.09 7.948 11.852 7.948 20.287 0 3.78-.501 7.562-1.504 11.343-1.002 3.78-3.293 9.525-6.873 17.233L95.587 89H65.514l10.74-36.865c-4.439-2.182-7.876-5.308-10.31-9.38-2.434-4.217-3.652-9.162-3.652-14.833 0-8.435 2.65-15.197 7.948-20.287C75.54 2.545 82.34 0 90.646 0z" fill="#E8ACB9"/></svg>