<svg width="30" height="30" fill="none" xmlns="http://www.w3.org/2000/svg"><path d="M15 0C6.716 0 0 6.716 0 15c0 8.284 6.716 15 15 15 8.284 0 15-6.716 15-15 0-8.284-6.716-15-15-15zm5.769 16.923s1.326 1.31 1.653 1.918c.01.012.014.025.017.03.133.224.164.398.099.527-.11.216-.485.322-.613.332h-2.344c-.162 0-.503-.043-.915-.327-.318-.222-.63-.586-.935-.94-.454-.529-.848-.985-1.245-.985-.05 0-.1.008-.149.024-.3.096-.684.525-.684 1.665 0 .356-.281.561-.48.561H14.1c-.366 0-2.27-.128-3.958-1.908-2.065-2.18-3.925-6.551-3.94-6.592-.118-.283.125-.434.389-.434h2.367c.315 0 .419.192.49.362.085.199.394.988.902 1.875.823 1.447 1.328 2.035 1.733 2.035a.47.47 0 00.217-.057c.528-.293.43-2.176.406-2.567 0-.073-.001-.842-.272-1.21-.193-.268-.523-.37-.723-.407a.86.86 0 01.31-.264c.363-.181 1.016-.208 1.665-.208h.36c.704.01.885.055 1.14.119.516.123.527.456.481 1.595a24.79 24.79 0 00-.028 1.12c0 .094-.005.194-.005.3-.015.58-.034 1.238.375 1.508a.337.337 0 00.178.052c.143 0 .57 0 1.73-1.99.358-.64.668-1.305.93-1.99.023-.04.092-.165.173-.214a.417.417 0 01.194-.045h2.783c.303 0 .51.045.55.162.069.186-.013.753-1.283 2.474l-.567.748c-1.152 1.51-1.152 1.586.072 2.731z" fill="#AAA"/></svg>