<svg width="579" height="580" fill="none" xmlns="http://www.w3.org/2000/svg"><path d="M292.507 2.84l-26.453 20.095c-3.756 2.872-8.528 3.322-12.732 1.41l-30.208-13.722c-5.452-2.436-11.855-.779-15.375 4.167l-19.275 27.046c-2.68 3.708-7.196 5.756-11.766 5.101l-32.794-4.293c-5.994-.71-11.674 2.723-13.484 8.529l-10.576 31.514c-1.438 4.391-5.207 7.58-9.832 8.353l-32.866 5.71c-5.904 1.041-10.221 6.115-10.456 12.141l-.814 33.165c-.18 4.599-2.72 8.789-6.92 10.849l-29.584 15.05c-5.332 2.652-7.952 8.903-6.434 14.68l8.899 31.954c1.251 4.496-.041 9.211-3.336 12.418L4.786 250.068c-4.28 4.122-5.015 10.765-1.89 15.969l17.933 27.858c2.541 3.911 2.667 8.839.45 12.883l-15.87 29.084c-2.899 5.288-1.728 11.845 2.877 15.678l25.318 21.315c3.528 2.996 5.09 7.663 4.278 12.238l-6.65 32.461c-1.178 5.831 1.916 11.828 7.374 14.105l30.555 12.942c4.21 1.752 7.22 5.84 7.675 10.464l3.153 33.001c.557 6.057 5.29 10.689 11.283 11.398l32.989 3.348c4.576.496 8.585 3.352 10.317 7.708l12.752 30.674c2.322 5.491 8.217 8.738 14.127 7.538l32.422-6.521c4.473-.938 9.164.674 12.193 4.286l21.195 25.444c3.783 4.594 10.392 5.804 15.73 2.994l29.141-15.862a12.408 12.408 0 0112.816.499l27.821 18.077c5.104 3.217 11.628 2.517 15.915-1.763l23.107-23.72c3.3-3.366 7.945-4.615 12.49-3.327l31.817 9.021c5.799 1.655 11.923-.966 14.67-6.418l15.096-29.591c2.059-4.05 6.284-6.744 10.885-6.883l33.149-.775c6.025-.084 11.109-4.492 12.134-10.488l5.708-32.656c.811-4.575 3.966-8.264 8.464-9.836l31.469-10.53c5.618-1.846 9.327-7.579 8.447-13.49l-4.108-32.879c-.613-4.63 1.465-9.155 5.215-11.868l26.897-19.285c4.889-3.463 6.565-9.91 4.085-15.406l-13.561-30.23c-1.896-4.203-1.389-9.107 1.449-12.809l20.042-26.38c3.672-4.781 3.457-11.461-.643-16.068l-21.378-24.815c-3.035-3.453-3.951-8.413-2.36-12.64l11.354-31.166c2.12-5.635-.171-11.919-5.275-15.135l-28.326-17.303c-3.869-2.374-6.234-6.754-6.055-11.354l1.764-33.127c.392-6.02-3.676-11.42-9.481-12.917l-32.165-8.239c-4.551-1.13-7.903-4.596-9.154-9.092l-8.095-32.24c-1.518-5.778-6.908-9.8-12.781-9.551l-33.028 1.733c-4.607.297-8.951-2.095-11.335-6L392.071 21.96c-3.125-5.204-9.38-7.353-15.004-5.348l-31.183 11.334c-4.34 1.579-9.214.595-12.584-2.395L308.488 3.46c-4.441-3.985-11.244-4.25-15.981-.622z" fill="#92CEE9"/></svg>