<svg width="70" height="70" fill="none" xmlns="http://www.w3.org/2000/svg"><path d="M41.926 1.534l2.05 21.287a.896.896 0 001.113.776l20.51-6.08c.888-.246 1.515.833.874 1.49L51.119 33.911c-.397.385-.355 1.038.111 1.345l17.536 12.26c.742.518.296 1.713-.61 1.616l-21.241-2.715a.872.872 0 00-.99.947l1.358 21.356c.069.93-1.143 1.3-1.642.511L34.54 50.922a.856.856 0 00-1.335-.194L17.346 65.117c-.67.618-1.726-.08-1.428-.958l7.385-20.085a.919.919 0 00-.68-1.189L1.49 39.437c-.9-.131-1.021-1.41-.124-1.722L21.7 30.962c.535-.16.76-.776.49-1.258L11.685 11.038c-.46-.817.48-1.668 1.261-1.18L30.875 21.53c.466.307 1.077.089 1.288-.426l8.062-19.816c.364-.867 1.632-.683 1.701.247z" fill="#EAADB9"/></svg>