<svg width="83" height="33" fill="none" xmlns="http://www.w3.org/2000/svg"><path d="M15.583.41C6.293.41 0 6.8 0 16.45c0 9.917 7.292 15.734 15.236 15.866 2.821.044 5.73-.66 8.377-2.115a3.359 3.359 0 003.457 1.648l.03-.005c2.337-.389 3.564-3.036 2.37-5.112l-.692-1.203c1.52-2.424 2.344-5.42 2.344-9.078 0-10.665-7.77-16.042-15.54-16.042zm0 24.414c-3.907 0-7.64-2.864-7.64-8.373 0-5.509 3.733-8.374 7.596-8.374 3.82 0 7.64 2.733 7.64 8.374 0 5.597-3.82 8.373-7.596 8.373zm38.081 2.589c-.51-.308-.52-.915-.505-1.855l.175-11.237c.032-2.069-1.593-3.772-3.63-3.805-2.038-.033-3.715 1.618-3.748 3.686l-.127 8.153c-.036 2.335-1.664 3.764-3.4 3.736-1.476-.024-2.848-1.148-2.678-3.702l.13-8.284c.031-2.069-1.594-3.772-3.632-3.805h-.087c-2.037-.034-3.715 1.617-3.747 3.685l-.129 8.285c-.083 5.332 1.328 9.541 7.578 9.642 2.387.038 4.923-1.155 6.043-3.386-.056 3.6 3.505 3.97 6.453 3.65 1.392-.152 2.454-1.334 2.476-2.755.013-.84-.461-1.578-1.172-2.008zM59.7 10.942c-2.024 0-3.667 1.664-3.67 3.72L56 28.14c-.004 2.062 1.64 3.736 3.672 3.736h.028c2.028 0 3.672-1.67 3.672-3.728V14.67c0-2.059-1.644-3.728-3.672-3.728zm19.628 0c-2.024 0-3.667 1.664-3.671 3.72l-.028 13.478c-.005 2.062 1.64 3.736 3.671 3.736h.028c2.028 0 3.672-1.67 3.672-3.728V14.67c0-2.059-1.644-3.728-3.672-3.728z" fill="#00BAE2"/><path d="M15.561 19.247c1.685 0 3.05-1.386 3.05-3.096 0-1.71-1.365-3.097-3.05-3.097-1.684 0-3.05 1.386-3.05 3.097 0 1.71 1.366 3.096 3.05 3.096zM77.603 7.24c0-1.65-1.317-2.988-2.942-2.988h-1.305c0-2.06-1.643-3.728-3.671-3.728-2.025 0-3.668 1.664-3.672 3.72v.01c-1.579.054-2.843 1.37-2.843 2.985 0 1.614 1.26 2.928 2.836 2.985l-.021 17.916c-.004 2.062 1.64 3.736 3.672 3.736h.028c2.028 0 3.671-1.67 3.671-3.728v-17.92h1.305c1.625-.001 2.942-1.339 2.942-2.989z" fill="#00BAE2"/></svg>