<svg width="162" height="70" fill="none" xmlns="http://www.w3.org/2000/svg"><g clip-path="url(#clip0_2494_171)" fill="#AAA"><path d="M30.415.796C12.285.796 0 13.22 0 31.988c0 19.28 14.233 30.592 29.737 30.85 5.507.085 11.183-1.286 16.351-4.114a6.563 6.563 0 006.747 3.204l.06-.01c4.56-.755 6.956-5.902 4.625-9.939l-1.35-2.338c2.965-4.714 4.575-10.54 4.575-17.653C60.745 11.25 45.58.796 30.415.796zm0 47.474c-7.625 0-14.911-5.57-14.911-16.282S22.79 15.706 30.33 15.706c7.455 0 14.91 5.313 14.91 16.282 0 10.883-7.455 16.282-14.825 16.282zm74.328 5.034c-.995-.6-1.015-1.78-.986-3.609l.341-21.85c.063-4.021-3.11-7.333-7.086-7.397-3.977-.063-7.251 3.146-7.314 7.168l-.248 15.851c-.07 4.542-3.25 7.32-6.638 7.265-2.88-.046-5.557-2.231-5.225-7.197l.251-16.108c.063-4.023-3.11-7.335-7.086-7.398l-.17-.003c-3.976-.063-7.251 3.146-7.314 7.168l-.251 16.108c-.162 10.368 2.59 18.554 14.79 18.748 4.658.075 9.609-2.246 11.794-6.582-.109 6.999 6.842 7.718 12.596 7.095 2.717-.293 4.789-2.593 4.832-5.356.026-1.633-.9-3.067-2.286-3.903zm11.781-32.028c-3.952 0-7.158 3.236-7.166 7.234l-.055 26.207c-.008 4.009 3.203 7.264 7.167 7.264h.054c3.958 0 7.167-3.246 7.167-7.25V28.526c0-4.003-3.209-7.249-7.167-7.249zm38.31 0c-3.952 0-7.158 3.236-7.167 7.234l-.054 26.207c-.009 4.009 3.202 7.264 7.166 7.264h.055c3.958 0 7.166-3.246 7.166-7.25V28.526c0-4.003-3.208-7.249-7.166-7.249z"/><path d="M30.372 37.425c3.288 0 5.953-2.696 5.953-6.021 0-3.326-2.665-6.021-5.953-6.021-3.287 0-5.953 2.695-5.953 6.02 0 3.326 2.666 6.022 5.953 6.022zm121.095-23.349c0-3.208-2.572-5.809-5.744-5.809h-2.546c0-4.003-3.208-7.249-7.166-7.249-3.952 0-7.158 3.236-7.167 7.234v.02c-3.081.105-5.547 2.662-5.547 5.805 0 3.137 2.459 5.692 5.534 5.804l-.041 34.836c-.009 4.01 3.202 7.264 7.166 7.264h.055c3.958 0 7.166-3.245 7.166-7.249V19.886h2.546c3.172 0 5.744-2.601 5.744-5.81z"/></g><defs><clipPath id="clip0_2494_171"><path fill="#fff" d="M0 0h162v70H0z"/></clipPath></defs></svg>